<svg width="302" height="409" viewBox="0 0 302 409" fill="none" xmlns="http://www.w3.org/2000/svg">
<ellipse cx="50" cy="170.5" rx="14" ry="28.5" fill="#79FEA8"/>
<ellipse cx="66.5" cy="208.5" rx="30.5" ry="28.5" fill="#79FEA8"/>
<ellipse cx="94.5" cy="227.5" rx="30.5" ry="28.5" fill="#79FEA8"/>
<ellipse cx="127.5" cy="237.5" rx="30.5" ry="28.5" fill="#79FEA8"/>
<ellipse cx="150.5" cy="251.5" rx="30.5" ry="28.5" fill="#79FEA8"/>
<ellipse cx="173.5" cy="265.5" rx="30.5" ry="28.5" fill="#79FEA8"/>
<ellipse cx="191.5" cy="279.5" rx="25.5" ry="28.5" fill="#79FEA8"/>
<ellipse cx="196.5" cy="310" rx="15.5" ry="30" fill="#79FEA8"/>
<ellipse cx="190" cy="337.5" rx="14" ry="20.5" fill="#79FEA8"/>
<ellipse cx="207" cy="142.5" rx="18" ry="28.5" fill="#79FEA8"/>
<path d="M18 377.8C18 376.467 17.8667 373.8 17.6 369.8C17.6 365.8 17.6 363.133 17.6 361.8C17.6 356.467 17.6 351.8 17.6 347.8C17.8667 343.533 18.1333 339.4 18.4 335.4C18.6667 331.133 18.9333 326.733 19.2 322.2C19.7333 317.4 20.2667 311.933 20.8 305.8C22.1333 302.067 25.2 300.2 30 300.2C34.2667 300.2 38 302.333 41.2 306.6C44.4 310.6 47.4667 315.4 50.4 321C53.3333 326.6 56.2667 332.2 59.2 337.8C62.1333 343.4 65.6 347.667 69.6 350.6C70.1333 351.133 72.1333 352.467 75.6 354.6C79.3333 356.467 84 358.6 89.6 361C95.2 363.133 101.467 365.133 108.4 367C115.333 368.867 122.4 369.8 129.6 369.8C136.8 369.8 143.333 368.6 149.2 366.2C155.067 363.533 160 360.067 164 355.8C168 351.533 171.067 346.467 173.2 340.6C175.333 334.733 176.4 328.467 176.4 321.8C176.4 317.267 174.267 312.333 170 307C165.733 301.667 160.533 296.733 154.4 292.2C148.267 287.4 141.733 283.533 134.8 280.6C128.133 277.4 122.4 275.8 117.6 275.8C116.267 275.8 114.667 276.333 112.8 277.4C111.2 278.2 109.467 279.267 107.6 280.6C105.733 281.667 103.867 282.733 102 283.8C100.4 284.6 99.0667 285 98 285C98.2667 283.667 98.4 282.467 98.4 281.4C98.4 280.333 98.4 279.4 98.4 278.6C98.4 274.867 97.8667 271.933 96.8 269.8C81.6 262.067 69.4667 255.267 60.4 249.4C51.3333 243.267 44.4 237.133 39.6 231C34.8 224.6 31.7333 217.8 30.4 210.6C29.0667 203.4 28.4 194.733 28.4 184.6C28.4 176.6 29.3333 167.4 31.2 157C33.0667 146.333 36.6667 136.467 42 127.4C48.4 116.467 57.3333 108.733 68.8 104.2C80.5333 99.4 92.9333 97 106 97C113.467 97 120.4 97.6667 126.8 99C133.2 100.333 139.333 102.2 145.2 104.6C151.067 107 156.933 109.933 162.8 113.4C168.667 116.867 174.933 120.733 181.6 125H184.8L206 99.8C206.267 99.8 206.933 99.8 208 99.8C209.333 99.5333 210.267 99.4 210.8 99.4C213.2 99.4 215.467 99.6667 217.6 100.2C220 100.733 221.6 102.333 222.4 105C223.733 116.2 225.067 128.067 226.4 140.6C227.733 152.867 228.4 164.6 228.4 175.8C228.4 177.133 227.867 178.333 226.8 179.4C225.733 180.2 224.4 180.867 222.8 181.4C221.2 181.667 219.467 181.933 217.6 182.2C216 182.2 214.667 182.2 213.6 182.2C212 182.2 209.333 180.6 205.6 177.4C201.867 173.933 197.2 169.667 191.6 164.6C186.267 159.533 180.267 154.2 173.6 148.6C167.2 142.733 160.533 137.267 153.6 132.2C146.667 127.133 139.867 123 133.2 119.8C126.533 116.333 120.267 114.6 114.4 114.6C108.267 114.6 102 115.133 95.6 116.2C89.4667 117.267 83.8667 119.133 78.8 121.8C73.7333 124.467 69.6 128.067 66.4 132.6C63.2 137.133 61.6 142.867 61.6 149.8C61.6 153.8 63.0667 158.2 66 163C68.9333 167.533 74 172.467 81.2 177.8C88.4 183.133 98.1333 188.733 110.4 194.6C122.667 200.467 138.133 206.6 156.8 213C157.333 212.467 158.4 211.133 160 209C161.6 206.6 163.333 204.2 165.2 201.8C167.067 199.133 168.933 196.867 170.8 195C172.667 192.867 174 191.8 174.8 191.8C176.933 191.8 178.533 192.6 179.6 194.2C180.933 195.533 181.6 197.133 181.6 199C181.6 199.8 181.2 201 180.4 202.6C179.867 204.2 179.067 205.933 178 207.8C176.933 209.667 175.867 211.533 174.8 213.4C174 215 173.467 216.333 173.2 217.4C182.267 223.8 190 229.8 196.4 235.4C203.067 241 208.533 246.867 212.8 253C217.067 259.133 220.133 265.933 222 273.4C224.133 280.6 225.2 289 225.2 298.6C225.2 310.067 222.667 320.867 217.6 331C212.533 341.133 205.467 350.067 196.4 357.8C187.333 365.533 176.4 371.667 163.6 376.2C150.8 380.733 136.8 383 121.6 383C106.667 383 91.8667 380.467 77.2 375.4C62.8 370.6 51.0667 362.333 42 350.6C42 350.6 41.7333 350.467 41.2 350.2C40.6667 350.2 39.8667 350.6 38.8 351.4C37.7333 351.933 37.2 352.467 37.2 353L31.6 380.2C31.3333 381.533 30.6667 382.333 29.6 382.6C28.5333 382.867 27.3333 383 26 383C23.8667 383 22.2667 382.6 21.2 381.8C20.4 381.267 19.3333 379.933 18 377.8ZM44.4 151.4C44.4 152.467 44.4 154.867 44.4 158.6C44.4 162.067 44.2667 165.933 44 170.2C44 174.467 44 178.467 44 182.2C44 185.933 44 188.333 44 189.4C44 192.867 44.4 196.333 45.2 199.8C46 203 46.9333 206.067 48 209C49.3333 213.267 51.2 217.667 53.6 222.2C56.2667 226.733 61.0667 231.667 68 237C75.2 242.067 85.3333 247.667 98.4 253.8C111.467 259.667 129.2 266.067 151.6 273C166.533 277.8 176.533 284.2 181.6 292.2C186.933 300.2 189.6 309.133 189.6 319C189.6 328.867 187.733 339.133 184 349.8C186.4 349.8 189.067 348.6 192 346.2C194.933 343.533 197.6 339.8 200 335C202.667 329.933 204.8 323.8 206.4 316.6C208.267 309.4 209.2 301.267 209.2 292.2C209.2 278.6 205.467 267.267 198 258.2C190.533 249.133 181.067 241.4 169.6 235C158.133 228.333 145.6 222.467 132 217.4C118.4 212.333 105.467 206.867 93.2 201C81.2 195.133 70.6667 188.333 61.6 180.6C52.5333 172.867 46.8 163.133 44.4 151.4ZM190.8 139.8C190.8 140.333 191.733 141.933 193.6 144.6C195.467 147 197.467 149.533 199.6 152.2C201.733 154.867 203.733 157.267 205.6 159.4C207.733 161.533 209.067 162.6 209.6 162.6H212.8C212.8 162.6 212.533 161.133 212 158.2C211.467 155.267 210.8 151.933 210 148.2C209.467 144.2 208.8 140.333 208 136.6C207.2 132.6 206.533 129.533 206 127.4C204.933 128.2 203.467 129.133 201.6 130.2C200 131 198.4 131.933 196.8 133C195.2 134.067 193.733 135.267 192.4 136.6C191.333 137.667 190.8 138.733 190.8 139.8Z" fill="black"/>
</svg>
